<?xml version="1.0" standalone="no"?>
<!DOCTYPE svg PUBLIC "-//W3C//DTD SVG 20010904//EN"
 "http://www.w3.org/TR/2001/REC-SVG-20010904/DTD/svg10.dtd">
<svg version="1.0" xmlns="http://www.w3.org/2000/svg"
 width="715.000000pt" height="318.000000pt" viewBox="0 0 715.000000 318.000000"
 preserveAspectRatio="xMidYMid meet">
<metadata>
Created by potrace 1.16, written by Peter Selinger 2001-2019
</metadata>
<g transform="translate(0.000000,318.000000) scale(0.100000,-0.100000)"
fill="#000000" stroke="none">
<path d="M5010 3174 c-146 -29 -317 -99 -486 -202 -144 -86 -206 -106 -315
-98 -160 12 -267 -34 -302 -129 -37 -100 -68 -114 -267 -124 -127 -6 -150 -10
-188 -31 -51 -29 -64 -48 -85 -120 -9 -31 -27 -66 -39 -78 -30 -28 -249 -132
-358 -170 -148 -52 -279 -75 -425 -76 -115 0 -215 14 -215 30 0 3 16 26 35 51
104 136 17 315 -153 314 -62 0 -161 -31 -182 -56 -7 -8 -18 -15 -25 -15 -15 0
-72 -61 -103 -111 -49 -80 -67 -187 -47 -280 14 -64 67 -153 127 -211 l59 -58
-931 0 c-1033 0 -969 4 -1042 -67 -69 -68 -69 -62 -66 -694 l3 -564 28 -48
c33 -55 83 -92 147 -106 30 -7 779 -11 2243 -11 1837 0 2197 -2 2197 -13 0
-32 60 -96 115 -122 55 -27 59 -28 183 -22 373 17 612 165 673 417 30 125 6
308 -56 430 -20 39 -25 65 -25 119 0 119 44 296 112 449 l23 53 195 -135 c217
-150 241 -170 322 -272 78 -99 139 -129 258 -129 76 0 93 4 152 33 77 37 128
90 167 172 24 50 26 65 25 170 -1 103 -26 262 -71 448 -5 20 -2 22 41 22 110
0 196 87 196 198 0 47 -35 117 -70 142 -15 11 -37 43 -50 72 -12 29 -35 71
-51 93 -16 22 -35 67 -44 99 -8 32 -21 69 -29 81 -16 24 -219 115 -256 115
-11 0 -50 -5 -88 -12 -37 -6 -79 -8 -94 -5 -47 12 -86 55 -110 119 -26 74
-113 172 -202 230 -34 21 -107 53 -170 74 l-110 35 -201 -5 c-110 -3 -207 -6
-215 -6 -8 -1 -58 0 -110 3 -52 3 -106 3 -120 1z m575 -160 c43 -7 102 -25
131 -39 28 -14 60 -25 70 -25 33 0 124 -59 124 -79 0 -11 15 -29 35 -41 57
-35 43 -55 -30 -44 -35 5 -46 11 -51 28 -3 14 -19 27 -39 35 -19 7 -47 25 -63
40 -21 22 -49 33 -121 50 -51 11 -94 21 -96 21 -1 0 6 -30 17 -66 12 -37 17
-69 12 -74 -5 -5 -60 5 -122 21 -306 79 -477 59 -745 -87 -183 -100 -256 -125
-381 -132 -107 -5 -228 11 -246 33 -9 11 -5 17 19 29 24 13 50 15 128 10 145
-10 213 13 424 137 205 121 383 179 511 165 32 -3 119 -26 193 -50 74 -24 132
-39 128 -32 -4 6 -22 30 -41 53 -60 74 -42 80 143 47z m200 -269 c49 -9 118
-27 154 -42 60 -24 88 -40 214 -125 52 -35 113 -44 210 -29 77 12 104 7 89
-15 -13 -20 -180 -67 -213 -60 -17 3 -94 37 -172 75 -210 103 -262 116 -482
116 -157 0 -191 -3 -264 -23 -124 -34 -246 -83 -352 -143 -215 -121 -343 -233
-625 -544 -223 -247 -396 -400 -525 -465 -64 -33 -133 -48 -143 -32 -3 6 47
50 111 98 121 91 359 321 623 603 320 342 548 495 859 576 143 37 339 41 516
10z m761 -202 c3 -16 7 -32 8 -38 2 -5 -8 -26 -20 -45 l-24 -34 23 -24 c12
-14 36 -30 52 -37 42 -18 60 -41 79 -102 13 -39 29 -63 63 -92 64 -55 43 -76
-50 -50 -52 14 -99 58 -143 134 -32 55 -42 65 -66 65 -16 0 -41 12 -60 28
l-31 29 31 28 c36 32 77 97 87 138 10 37 43 36 51 0z m-2111 -56 c69 -9 91
-16 93 -28 3 -14 -10 -18 -80 -23 -46 -4 -141 -11 -213 -17 -160 -12 -335 -42
-412 -70 -32 -12 -204 -92 -383 -179 -414 -202 -539 -248 -765 -285 -351 -57
-636 68 -636 280 0 59 10 85 50 128 45 50 132 85 150 63 8 -10 -2 -27 -38 -69
-173 -198 56 -358 454 -317 301 31 519 112 910 340 245 143 317 173 460 194
46 7 309 -4 410 -17z m2049 -289 c3 -18 8 -62 11 -98 3 -36 19 -126 35 -200
66 -314 82 -405 78 -457 -5 -60 -39 -117 -93 -158 -32 -25 -40 -27 -89 -21
-46 6 -61 14 -98 49 -24 23 -69 79 -101 125 -33 45 -63 82 -68 82 -5 0 -44 33
-87 74 -42 40 -97 84 -122 96 -56 29 -154 122 -187 178 -48 82 -14 195 79 262
59 43 69 26 30 -53 -33 -67 -41 -131 -22 -181 19 -50 80 -105 141 -127 55 -20
59 -24 59 -53 1 -26 7 -34 43 -51 28 -13 54 -37 77 -72 24 -35 42 -52 56 -53
30 0 88 -26 104 -45 8 -10 12 -38 11 -75 -1 -34 3 -61 9 -65 6 -4 38 -8 71 -8
51 -2 62 2 86 25 55 56 39 182 -58 449 -51 141 -52 143 -45 228 9 131 16 158
40 169 32 16 35 15 40 -20z m-764 -147 c0 -34 -4 -40 -26 -45 -32 -8 -122 -84
-130 -110 -4 -10 -32 -66 -64 -123 -86 -155 -126 -297 -150 -542 -5 -58 -12
-106 -14 -109 -3 -2 -21 2 -41 9 -46 17 -50 33 -42 173 12 207 88 410 221 587
35 48 71 99 79 114 16 31 109 85 145 85 19 0 22 -5 22 -39z m-252 3 c36 -10
26 -30 -35 -66 -35 -20 -64 -46 -72 -63 -8 -17 -44 -62 -80 -101 -37 -39 -97
-122 -135 -187 -65 -110 -86 -131 -101 -107 -10 16 22 125 59 197 44 89 107
164 173 210 29 20 60 47 68 60 16 24 72 63 90 63 6 0 20 -3 33 -6z m-1748
-110 c0 -26 -65 -125 -112 -171 -29 -29 -86 -62 -179 -107 -75 -35 -140 -69
-143 -75 -7 -10 13 -18 64 -23 14 -2 25 -9 25 -18 0 -12 -16 -16 -76 -18 -104
-4 -149 12 -172 62 -10 21 -15 42 -10 47 5 5 32 13 61 19 74 14 197 57 265 93
31 16 56 32 54 33 -2 2 -44 -10 -93 -26 -200 -69 -452 -120 -586 -120 -140 0
-354 67 -346 108 3 12 13 17 38 16 19 -1 114 -5 210 -9 295 -13 458 16 790
138 191 70 210 75 210 51z m-3374 -349 c87 -36 82 -197 -7 -242 -13 -7 -54
-13 -91 -13 l-68 0 0 128 c0 71 3 132 7 135 12 13 123 7 159 -8z m364 -6 c0
-20 -4 -21 -43 -16 -44 6 -67 -4 -67 -30 0 -7 19 -22 43 -34 62 -32 77 -48 77
-86 0 -48 -37 -83 -87 -83 -57 0 -84 10 -81 29 4 17 21 18 75 6 25 -6 33 -3
42 13 15 28 5 48 -32 63 -51 20 -77 49 -77 85 0 46 38 74 101 74 43 0 49 -2
49 -21z m235 6 c0 -5 -17 -11 -37 -13 l-38 -3 0 -120 0 -119 -25 0 -25 0 0
120 0 120 -40 0 c-29 0 -40 4 -40 15 0 13 16 15 103 13 59 -2 102 -7 102 -13z
m179 -4 c24 -20 21 -93 -4 -116 -19 -17 -19 -18 1 -56 11 -22 28 -45 39 -51
27 -17 25 -28 -6 -28 -38 0 -57 14 -84 64 -13 25 -28 46 -32 46 -5 0 -8 -25
-8 -55 0 -52 -1 -55 -25 -55 l-25 0 0 136 0 136 64 -4 c35 -2 71 -10 80 -17z
m320 9 c15 -5 31 -21 38 -35 10 -22 8 -30 -10 -54 -21 -29 -21 -29 -2 -43 11
-7 23 -27 26 -45 5 -26 1 -37 -19 -57 -23 -23 -35 -26 -92 -26 l-65 0 0 135 0
135 49 0 c27 0 61 -4 75 -10z m146 -98 c0 -119 5 -132 55 -132 50 0 55 13 55
133 l0 108 28 -3 27 -3 0 -103 0 -104 -33 -29 c-27 -24 -41 -29 -83 -29 -40 0
-55 5 -74 25 -24 23 -25 31 -25 135 l0 110 25 0 25 0 0 -108z m500 90 c68 -34
79 -149 20 -215 -27 -30 -33 -32 -109 -35 l-81 -4 0 129 c0 71 3 133 7 136 14
14 128 7 163 -11z m284 8 c45 -17 68 -66 63 -139 -3 -57 -6 -67 -36 -93 -31
-28 -39 -30 -92 -26 -71 5 -93 23 -109 88 -11 48 -10 66 12 123 19 49 97 72
162 47z m249 -1 c30 -16 37 -28 37 -66 0 -21 -8 -41 -21 -54 -22 -22 -22 -23
-4 -55 24 -44 53 -70 65 -58 5 5 29 61 53 124 38 102 46 115 69 118 24 3 27
-3 68 -120 23 -68 45 -129 47 -135 4 -9 -5 -13 -25 -13 -26 0 -31 5 -42 45
l-13 45 -47 0 c-48 0 -48 0 -62 -42 -14 -42 -16 -43 -62 -46 -56 -4 -74 9
-101 68 -10 22 -22 40 -27 40 -4 0 -8 -25 -8 -55 0 -54 0 -55 -30 -55 l-30 0
0 128 c0 71 3 132 7 135 11 11 103 8 126 -4z m1832 -229 c140 -16 258 -38 406
-75 125 -32 146 -41 244 -101 58 -37 128 -87 154 -110 81 -73 150 -234 151
-348 0 -22 -8 -67 -17 -100 -23 -82 -109 -172 -198 -205 -82 -31 -194 -50
-290 -50 l-80 1 125 29 c208 49 295 102 349 211 99 198 -57 449 -366 589 -91
42 -282 95 -405 113 -138 21 -434 21 -598 1 -68 -9 -232 -34 -364 -55 -131
-22 -244 -40 -250 -40 -6 1 45 19 114 40 120 38 298 66 615 99 116 12 306 12
410 1z m-3433 -497 c58 -170 109 -318 112 -330 7 -22 5 -23 -61 -23 l-68 0
-35 108 -35 107 -35 -1 c-19 -1 -71 -2 -115 -3 l-81 -1 -35 -102 -35 -103 -42
-3 -41 -3 29 78 c56 152 211 557 214 560 4 4 84 20 107 22 13 1 40 -69 121
-306z m-724 5 l2 -288 116 0 115 0 -3 -32 -3 -33 -177 -3 -178 -2 0 325 0 326
63 -3 62 -3 3 -287z m1367 69 c56 -120 105 -220 108 -223 2 -3 9 8 15 23 6 15
40 93 77 173 37 80 76 169 87 198 l21 52 58 0 c53 0 59 -2 64 -22 2 -13 16
-138 30 -278 14 -140 28 -276 31 -302 l7 -48 -67 0 c-36 0 -66 3 -66 8 1 31
-44 449 -49 454 -4 4 -54 -98 -111 -227 -87 -195 -108 -235 -125 -235 -17 0
-41 42 -135 242 l-115 243 -18 -220 c-23 -281 -19 -265 -62 -265 -19 0 -35 4
-35 8 0 18 50 549 56 595 l6 48 60 -3 60 -3 103 -218z m973 191 l-3 -33 -90
-2 c-144 -5 -135 3 -135 -113 l0 -100 80 -1 c44 -1 85 -3 90 -4 6 -1 17 -3 26
-4 11 -1 14 -9 12 -28 l-3 -28 -102 -3 -103 -3 0 -114 0 -115 98 -1 c94 0 141
-5 150 -14 2 -2 2 -16 -2 -30 l-6 -25 -185 0 -185 0 0 318 c0 175 3 322 7 325
3 4 85 7 180 7 l174 0 -3 -32z m436 7 c57 -29 79 -64 84 -134 6 -80 -11 -123
-64 -170 l-45 -40 45 -78 c53 -92 99 -142 138 -150 21 -4 28 -11 28 -28 0 -25
-22 -35 -83 -35 -86 0 -134 43 -206 185 -36 71 -47 85 -67 85 l-24 0 0 -130 0
-130 -60 0 -60 0 0 318 c0 175 3 322 8 326 4 4 66 6 137 4 105 -2 137 -7 169
-23z m710 14 c4 -3 -12 -87 -18 -95 -1 -1 -32 4 -71 12 -147 28 -218 10 -244
-62 -22 -61 -20 -256 2 -321 21 -60 62 -99 113 -109 31 -6 146 7 202 22 19 6
22 3 22 -23 0 -27 -5 -31 -57 -47 -85 -27 -199 -32 -260 -12 -60 20 -114 72
-145 141 -19 42 -22 68 -23 165 0 99 3 122 23 165 13 28 35 63 50 78 33 35
103 77 145 88 33 8 253 7 261 -2z m466 -24 l0 -35 -99 0 c-55 0 -106 -3 -115
-6 -13 -5 -16 -24 -16 -105 l0 -99 85 -1 c47 -1 90 -3 95 -4 6 -1 16 -3 23 -4
9 -1 12 -11 9 -31 l-4 -29 -102 -3 -101 -3 -3 -112 -3 -113 101 -1 c55 -1 105
-3 110 -4 6 -1 17 -3 25 -4 10 -1 15 -12 15 -31 l0 -30 -185 0 -185 0 0 325 0
325 175 0 175 0 0 -35z m525 0 c105 -52 148 -133 148 -275 0 -157 -52 -252
-168 -310 l-70 -35 -140 1 c-77 0 -148 3 -158 7 -16 6 -17 32 -17 321 l0 315
33 4 c17 3 95 4 172 3 134 -1 142 -2 200 -31z"/>
<path d="M230 1475 l0 -105 44 0 c58 0 76 24 76 101 0 75 -25 109 -81 109
l-39 0 0 -105z"/>
<path d="M1970 1475 l0 -105 44 0 c59 0 76 23 76 103 0 72 -28 107 -85 107
l-35 0 0 -105z"/>
<path d="M2280 1573 c-24 -10 -30 -25 -30 -86 0 -87 20 -117 77 -117 48 0 67
34 61 112 -4 48 -9 65 -27 79 -23 19 -52 23 -81 12z"/>
<path d="M815 1049 c-13 -38 -85 -244 -85 -246 0 -2 41 -3 90 -3 50 0 90 4 90
8 0 11 -79 244 -85 250 -2 3 -7 -1 -10 -9z"/>
<path d="M2880 975 c0 -141 -2 -138 82 -114 48 13 68 49 68 124 0 49 -4 60
-29 86 -24 24 -38 29 -75 29 l-46 0 0 -125z"/>
<path d="M4533 1102 l-33 -3 0 -260 0 -259 63 0 c163 1 208 46 223 225 11 121
-21 218 -87 267 -27 20 -111 35 -166 30z"/>
<path d="M1283 213 c-22 -4 -23 -8 -23 -109 0 -104 0 -104 24 -104 18 0 24 5
22 18 -2 9 0 28 4 42 6 24 7 24 30 -18 21 -37 27 -42 59 -41 20 0 31 3 24 5
-7 3 -22 21 -33 40 l-22 34 21 26 c37 47 26 88 -30 104 -35 10 -38 10 -76 3z"/>
<path d="M2220 207 c-65 -22 -88 -117 -46 -182 15 -23 23 -25 90 -25 60 0 76
4 91 20 21 24 30 95 16 132 -19 51 -89 76 -151 55z m85 -31 c27 -19 34 -125
10 -149 -20 -21 -64 -22 -90 -3 -16 11 -20 27 -20 80 0 49 4 69 15 76 22 14
63 12 85 -4z"/>
<path d="M2968 208 c-13 -11 -88 -182 -88 -202 0 -3 6 -6 14 -6 8 0 17 13 21
30 6 28 9 30 55 30 46 0 49 -2 55 -30 5 -24 12 -30 32 -30 16 0 23 5 21 12 -3
7 -20 57 -38 111 -19 53 -39 97 -45 97 -6 0 -18 -6 -27 -12z"/>
<path d="M4160 213 c-21 -5 -101 -213 -82 -213 7 0 19 13 25 30 10 27 16 30
55 30 39 0 44 -3 53 -30 8 -22 17 -30 35 -30 13 0 24 1 24 3 -1 16 -80 212
-86 213 -5 1 -16 0 -24 -3z"/>
<path d="M350 105 c0 -90 2 -105 16 -105 14 0 15 10 9 72 l-7 73 74 -73 c47
-46 82 -72 96 -72 21 0 22 3 22 105 0 87 -3 105 -15 105 -12 0 -15 -15 -15
-77 l0 -78 -78 78 c-42 42 -83 77 -90 77 -9 0 -12 -29 -12 -105z"/>
<path d="M680 117 c0 -59 4 -97 12 -105 7 -7 40 -12 78 -12 92 0 100 10 100
123 0 80 -2 87 -20 87 -18 0 -20 -7 -20 -88 0 -98 -7 -112 -57 -112 -44 0 -53
21 -53 119 0 74 -2 81 -20 81 -19 0 -20 -7 -20 -93z"/>
<path d="M2491 105 c-1 -86 2 -105 14 -105 12 0 15 15 15 72 l0 72 73 -72
c101 -100 107 -98 107 33 0 63 -4 105 -10 105 -6 0 -10 -32 -10 -77 l0 -78
-78 78 c-42 42 -85 77 -94 77 -15 0 -17 -14 -17 -105z"/>
<path d="M3190 105 c0 -63 4 -105 10 -105 6 0 10 31 10 72 l0 72 73 -72 c101
-100 107 -98 107 33 0 63 -4 105 -10 105 -6 0 -10 -32 -10 -77 l0 -78 -78 78
c-42 42 -83 77 -90 77 -9 0 -12 -29 -12 -105z"/>
<path d="M3696 163 c-19 -159 -19 -163 -2 -163 13 0 16 11 17 53 2 103 10 107
51 23 21 -42 44 -76 51 -76 7 0 28 32 47 70 19 39 37 70 42 70 4 0 8 -15 8
-32 0 -18 3 -50 6 -70 5 -30 11 -38 28 -38 22 0 22 0 10 103 -7 56 -13 103
-13 105 -1 1 -10 2 -21 2 -16 0 -29 -18 -57 -75 -19 -41 -38 -73 -42 -71 -3 2
-22 36 -41 75 -27 56 -38 71 -56 71 -19 0 -23 -7 -28 -47z"/>
</g>
</svg>
